<?xml version="1.0" encoding="utf-8"?>
<!-- Generator: Adobe Illustrator 24.0.0, SVG Export Plug-In . SVG Version: 6.00 Build 0)  -->
<svg version="1.1" id="Layer_1" xmlns="http://www.w3.org/2000/svg" xmlns:xlink="http://www.w3.org/1999/xlink" x="0px" y="0px"
	 viewBox="0 0 3543.31 992.13" style="enable-background:new 0 0 3543.31 992.13;" xml:space="preserve">
<style type="text/css">
	.st0{clip-path:url(#SVGID_2_);}
	.st1{fill:#FFFFFF;}
	.st2{font-family:'AvenirNextLTPro-Bold';}
	.st3{font-size:272.388px;}
	.st4{letter-spacing:-5.92;}
	.st5{letter-spacing:-4.94;}
	.st6{clip-path:url(#SVGID_4_);}
	.st7{clip-path:url(#SVGID_6_);}
	.st8{font-family:'AvenirNextLTPro-Regular';}
	.st9{letter-spacing:9.87;}
	.st10{letter-spacing:0.99;}
	.st11{letter-spacing:-12.84;}
	.st12{letter-spacing:-19.75;}
	.st13{letter-spacing:-10.86;}
	.st14{letter-spacing:-6.91;}
	.st15{clip-path:url(#SVGID_8_);fill-rule:evenodd;clip-rule:evenodd;fill:#2BB788;}
	.st16{clip-path:url(#SVGID_8_);}
	.st17{clip-path:url(#SVGID_10_);fill-rule:evenodd;clip-rule:evenodd;fill:#024059;}
</style>
<g>
	<g>
		<defs>
			<rect id="SVGID_1_" x="102.87" y="42.59" width="3360.3" height="925.14"/>
		</defs>
		<clipPath id="SVGID_2_">
			<use xlink:href="#SVGID_1_"  style="overflow:visible;"/>
		</clipPath>
		<g class="st0">
			<text transform="matrix(1.0128 0 0 1 732.8932 409.8338)"><tspan x="0" y="0" class="st1 st2 st3 st4">L</tspan><tspan x="136.73" y="0" class="st1 st2 st3"> I</tspan><tspan x="291.45" y="0" class="st1 st2 st3"> </tspan><tspan x="360.09" y="0" class="st1 st2 st3">G </tspan><tspan x="637.65" y="0" class="st1 st2 st3">H</tspan><tspan x="845.48" y="0" class="st1 st2 st3 st5"> </tspan><tspan x="907.86" y="0" class="st1 st2 st3 st4">T</tspan><tspan x="1059.31" y="0" class="st1 st2 st3"> </tspan><tspan x="1127.95" y="0" class="st1 st2 st3">H</tspan><tspan x="1335.78" y="0" class="st1 st2 st3"> </tspan><tspan x="1404.42" y="0" class="st1 st2 st3">O</tspan><tspan x="1635.95" y="0" class="st1 st2 st3"> U S</tspan><tspan x="2134.14" y="0" class="st1 st2 st3"> </tspan><tspan x="2202.78" y="0" class="st1 st2 st3">E</tspan></text>
		</g>
	</g>
	<g>
		<defs>
			<polygon id="SVGID_3_" points="91.51,958.63 3451.8,958.63 3451.8,33.49 91.51,33.49 91.51,958.63 			"/>
		</defs>
		<clipPath id="SVGID_4_">
			<use xlink:href="#SVGID_3_"  style="overflow:visible;"/>
		</clipPath>
		<g class="st6">
			<defs>
				<rect id="SVGID_5_" x="91.51" y="33.49" width="3360.3" height="925.14"/>
			</defs>
			<clipPath id="SVGID_6_">
				<use xlink:href="#SVGID_5_"  style="overflow:visible;"/>
			</clipPath>
			<g class="st7">
				<text transform="matrix(1.0128 0 0 1 721.5296 727.0324)"><tspan x="0" y="0" class="st1 st8 st3 st9">D</tspan><tspan x="216.27" y="0" class="st1 st8 st3 st4"> I </tspan><tspan x="402.86" y="0" class="st1 st8 st3 st10">G</tspan><tspan x="616.41" y="0" class="st1 st8 st3 st4"> I</tspan><tspan x="741.7" y="0" class="st1 st8 st3 st11"> </tspan><tspan x="796.45" y="0" class="st1 st8 st3 st12">T</tspan><tspan x="931.83" y="0" class="st1 st8 st3 st13"> </tspan><tspan x="988.21" y="0" class="st1 st8 st3 st10">A</tspan><tspan x="1180.25" y="0" class="st1 st8 st3 st14"> </tspan><tspan x="1240.72" y="0" class="st1 st8 st3">L</tspan></text>
			</g>
		</g>
		<g class="st6">
			<defs>
				<polygon id="SVGID_7_" points="91.51,958.63 3451.8,958.63 3451.8,33.49 91.51,33.49 91.51,958.63 				"/>
			</defs>
			<clipPath id="SVGID_8_">
				<use xlink:href="#SVGID_7_"  style="overflow:visible;"/>
			</clipPath>
			<path class="st15" d="M453.78,67.84c8.67-8.56,22.72-8.56,31.38,0l62.76,61.97c8.67,8.56,8.67,22.43,0,30.98l-355.7,351.19
				c-8.67,8.56-22.72,8.56-31.38,0l-62.76-61.97c-8.67-8.56-8.67-22.43,0-30.98L453.78,67.84z"/>
			<g class="st16">
				<defs>
					<polygon id="SVGID_9_" points="91.51,958.63 3451.8,958.63 3451.8,33.49 91.51,33.49 91.51,958.63 					"/>
				</defs>
				<clipPath id="SVGID_10_">
					<use xlink:href="#SVGID_9_"  style="overflow:visible;"/>
				</clipPath>
				<path class="st17" d="M453.78,422.07c8.67-8.56,22.72-8.56,31.38,0l62.76,61.97c8.67,8.56,8.67,22.43,0,30.98l-355.7,351.19
					c-8.67,8.56-22.72,8.56-31.38,0l-62.76-61.97c-8.67-8.56-8.67-22.43,0-30.98L453.78,422.07z"/>
			</g>
		</g>
	</g>
</g>
</svg>
