<?xml version="1.0" encoding="utf-8"?>
<!-- Generator: Adobe Illustrator 24.0.0, SVG Export Plug-In . SVG Version: 6.00 Build 0)  -->
<svg version="1.1" id="Layer_1" xmlns="http://www.w3.org/2000/svg" xmlns:xlink="http://www.w3.org/1999/xlink" x="0px" y="0px"
	 viewBox="0 0 992.13 992.13" style="enable-background:new 0 0 992.13 992.13;" xml:space="preserve">
<style type="text/css">
	.st0{fill-rule:evenodd;clip-rule:evenodd;fill:#2BB788;}
	.st1{fill-rule:evenodd;clip-rule:evenodd;fill:#024059;}
</style>
<path class="st0" d="M656.01,7.85c10.6-10.46,27.78-10.46,38.38,0l76.76,75.79c10.6,10.46,10.6,27.43,0,37.9L336.12,551.05
	c-10.6,10.46-27.78,10.46-38.38,0l-76.76-75.79c-10.6-10.46-10.6-27.43,0-37.9L656.01,7.85z"/>
<path class="st1" d="M656.01,441.08c10.6-10.46,27.78-10.46,38.38,0l76.76,75.79c10.6,10.46,10.6,27.43,0,37.9L336.12,984.28
	c-10.6,10.46-27.78,10.46-38.38,0l-76.76-75.79c-10.6-10.46-10.6-27.43,0-37.9L656.01,441.08z"/>
</svg>
